<svg width="32" height="32" viewBox="0 0 32 32" fill="none" xmlns="http://www.w3.org/2000/svg">
<path d="M28 14.6707H27.7654L25.3347 7.56L4.47204 14.6707L4.00004 14.6667M3.33337 14.672H4.00004L18.8614 2.8L22.6174 8.06667" stroke="#19007C" stroke-width="2" stroke-linecap="square"/>
<path d="M19.3334 21.3333C19.3334 22.2174 18.9822 23.0652 18.3571 23.6904C17.732 24.3155 16.8841 24.6667 16.0001 24.6667C15.116 24.6667 14.2682 24.3155 13.6431 23.6904C13.0179 23.0652 12.6667 22.2174 12.6667 21.3333C12.6667 20.4493 13.0179 19.6014 13.6431 18.9763C14.2682 18.3512 15.116 18 16.0001 18C16.8841 18 17.732 18.3512 18.3571 18.9763C18.9822 19.6014 19.3334 20.4493 19.3334 21.3333Z" stroke="#19007C" stroke-width="2" stroke-linecap="square"/>
<path d="M28.6667 14.6667V28H3.33337V14.6667H28.6667Z" stroke="#19007C" stroke-width="2" stroke-linecap="square"/>
<path d="M3.33337 14.6667H6.00004C6.00004 15.3739 5.71909 16.0522 5.21899 16.5523C4.7189 17.0524 4.04062 17.3333 3.33337 17.3333V14.6667ZM28.6667 14.6667H26C26 15.3739 26.281 16.0522 26.7811 16.5523C27.2812 17.0524 27.9595 17.3333 28.6667 17.3333V14.6667ZM3.33337 28H6.00271C6.00306 27.6494 5.93425 27.3021 5.80023 26.9781C5.66621 26.6541 5.4696 26.3597 5.22166 26.1117C4.97372 25.8638 4.67932 25.6672 4.3553 25.5331C4.03128 25.3991 3.68401 25.3303 3.33337 25.3307V28ZM28.6667 28H26C26 27.2928 26.281 26.6145 26.7811 26.1144C27.2812 25.6143 27.9595 25.3333 28.6667 25.3333V28Z" stroke="#19007C" stroke-width="2" stroke-linecap="square"/>
</svg>
