<svg width="32" height="32" viewBox="0 0 32 32" fill="none" xmlns="http://www.w3.org/2000/svg">
<path d="M27.9999 14.6707H27.7653L25.3346 7.55999L4.47192 14.6707L3.99992 14.6667M3.33325 14.672H3.99992L18.8613 2.79999L22.6173 8.06665" stroke="black" stroke-width="2" stroke-linecap="square"/>
<path d="M19.3332 21.3333C19.3332 22.2173 18.982 23.0652 18.3569 23.6903C17.7317 24.3154 16.8839 24.6666 15.9998 24.6666C15.1158 24.6666 14.2679 24.3154 13.6428 23.6903C13.0177 23.0652 12.6665 22.2173 12.6665 21.3333C12.6665 20.4492 13.0177 19.6014 13.6428 18.9762C14.2679 18.3511 15.1158 17.9999 15.9998 17.9999C16.8839 17.9999 17.7317 18.3511 18.3569 18.9762C18.982 19.6014 19.3332 20.4492 19.3332 21.3333Z" stroke="black" stroke-width="2" stroke-linecap="square"/>
<path d="M28.6666 14.6666V28H3.33325V14.6666H28.6666Z" stroke="black" stroke-width="2" stroke-linecap="square"/>
<path d="M3.33325 14.6666H5.99992C5.99992 15.3739 5.71897 16.0521 5.21887 16.5522C4.71877 17.0523 4.0405 17.3333 3.33325 17.3333V14.6666ZM28.6666 14.6666H25.9999C25.9999 15.3739 26.2809 16.0521 26.781 16.5522C27.2811 17.0523 27.9593 17.3333 28.6666 17.3333V14.6666ZM3.33325 28H6.00258C6.00294 27.6493 5.93413 27.3021 5.80011 26.978C5.66609 26.654 5.46948 26.3596 5.22154 26.1117C4.9736 25.8637 4.67919 25.6671 4.35518 25.5331C4.03116 25.3991 3.68389 25.3303 3.33325 25.3306V28ZM28.6666 28H25.9999C25.9999 27.2927 26.2809 26.6144 26.781 26.1143C27.2811 25.6142 27.9593 25.3333 28.6666 25.3333V28Z" stroke="black" stroke-width="2" stroke-linecap="square"/>
</svg>
