<svg width="40" height="40" viewBox="0 0 40 40" fill="none" xmlns="http://www.w3.org/2000/svg">
<path d="M15.2884 24.7167C14.6693 24.0976 14.1782 23.3626 13.8432 22.5538C13.5081 21.7449 13.3357 20.878 13.3357 20.0025C13.3357 19.127 13.5081 18.2601 13.8432 17.4512C14.1782 16.6424 14.6693 15.9074 15.2884 15.2883C15.9074 14.6693 16.6424 14.1782 17.4512 13.8431C18.2601 13.5081 19.127 13.3357 20.0025 13.3357C20.878 13.3357 21.745 13.5081 22.5538 13.8431C23.3627 14.1782 24.0976 14.6693 24.7167 15.2883" stroke="#E6E8F2" stroke-width="2" stroke-linecap="round" stroke-linejoin="round"/>
<path d="M18.8233 21.1783L19.1133 21.59C20.762 23.8191 23.1049 25.4369 25.7736 26.1888C28.4422 26.9407 31.2851 26.784 33.855 25.7433C32.9092 28.0192 31.4173 30.0269 29.511 31.589C27.6048 33.1511 25.3431 34.2194 22.9258 34.6996C20.5085 35.1797 18.0101 35.0568 15.6516 34.3418C13.2931 33.6268 11.1471 32.3416 9.40333 30.6M5 20H6.66667M20 5V6.66667M9.33333 9.33333L10.5 10.5M5 35L35 5" stroke="#E6E8F2" stroke-width="2" stroke-linecap="round" stroke-linejoin="round"/>
</svg>
