<svg width="24" height="24" viewBox="0 0 24 24" fill="none" xmlns="http://www.w3.org/2000/svg">
<path d="M13.54 18L13 18.59V15C13 14.7348 12.8946 14.4804 12.7071 14.2929C12.5196 14.1054 12.2652 14 12 14C11.7348 14 11.4804 14.1054 11.2929 14.2929C11.1054 14.4804 11 14.7348 11 15V18.59L10.46 18.04C10.3692 17.9375 10.2584 17.8547 10.1343 17.7968C10.0102 17.7388 9.87556 17.707 9.73868 17.7033C9.6018 17.6995 9.4656 17.7239 9.33854 17.775C9.21148 17.826 9.09625 17.9026 9 18C8.90627 18.093 8.83188 18.2036 8.78111 18.3254C8.73034 18.4473 8.7042 18.578 8.7042 18.71C8.7042 18.842 8.73034 18.9727 8.78111 19.0946C8.83188 19.2164 8.90627 19.327 9 19.42L11.29 21.71C11.3851 21.801 11.4972 21.8724 11.62 21.92C11.8635 22.02 12.1365 22.02 12.38 21.92C12.5028 21.8724 12.6149 21.801 12.71 21.71L15 19.46C15.1936 19.2664 15.3024 19.0038 15.3024 18.73C15.3024 18.4562 15.1936 18.1936 15 18C14.8064 17.8064 14.5438 17.6976 14.27 17.6976C13.9962 17.6976 13.7336 17.8064 13.54 18ZM12 12C12.5933 12 13.1734 11.8241 13.6667 11.4944C14.1601 11.1648 14.5446 10.6962 14.7716 10.1481C14.9987 9.59987 15.0581 8.99667 14.9424 8.41473C14.8266 7.83279 14.5409 7.29824 14.1213 6.87868C13.7018 6.45912 13.1672 6.1734 12.5853 6.05764C12.0033 5.94189 11.4001 6.0013 10.8519 6.22836C10.3038 6.45543 9.83524 6.83994 9.50559 7.33329C9.17595 7.82664 9 8.40666 9 9C9 9.79565 9.31607 10.5587 9.87868 11.1213C10.4413 11.6839 11.2044 12 12 12ZM12 8C12.1978 8 12.3911 8.05865 12.5556 8.16853C12.72 8.27841 12.8482 8.43459 12.9239 8.61732C12.9996 8.80004 13.0194 9.00111 12.9808 9.19509C12.9422 9.38907 12.847 9.56726 12.7071 9.70711C12.5673 9.84696 12.3891 9.9422 12.1951 9.98079C12.0011 10.0194 11.8 9.99957 11.6173 9.92388C11.4346 9.84819 11.2784 9.72002 11.1685 9.55557C11.0586 9.39112 11 9.19778 11 9C11 8.73478 11.1054 8.48043 11.2929 8.29289C11.4804 8.10536 11.7348 8 12 8ZM19 9C19 8.80222 18.9414 8.60888 18.8315 8.44443C18.7216 8.27998 18.5654 8.15181 18.3827 8.07612C18.2 8.00043 17.9989 7.98063 17.8049 8.01922C17.6109 8.0578 17.4327 8.15304 17.2929 8.29289C17.153 8.43275 17.0578 8.61093 17.0192 8.80491C16.9806 8.99889 17.0004 9.19996 17.0761 9.38268C17.1518 9.56541 17.28 9.72159 17.4444 9.83147C17.6089 9.94135 17.8022 10 18 10C18.2652 10 18.5196 9.89464 18.7071 9.70711C18.8946 9.51957 19 9.26522 19 9ZM5 9C5 9.19778 5.05865 9.39112 5.16853 9.55557C5.27841 9.72002 5.43459 9.84819 5.61732 9.92388C5.80004 9.99957 6.00111 10.0194 6.19509 9.98079C6.38907 9.9422 6.56726 9.84696 6.70711 9.70711C6.84696 9.56726 6.9422 9.38907 6.98079 9.19509C7.01937 9.00111 6.99957 8.80004 6.92388 8.61732C6.84819 8.43459 6.72002 8.27841 6.55557 8.16853C6.39112 8.05865 6.19778 8 6 8C5.73478 8 5.48043 8.10536 5.29289 8.29289C5.10536 8.48043 5 8.73478 5 9ZM4 16H8C8.26522 16 8.51957 15.8946 8.70711 15.7071C8.89464 15.5196 9 15.2652 9 15C9 14.7348 8.89464 14.4804 8.70711 14.2929C8.51957 14.1054 8.26522 14 8 14L4 14C3.73478 14 3.48043 13.8946 3.29289 13.7071C3.10536 13.5196 3 13.2652 3 13L3 5C3 4.73478 3.10536 4.48043 3.29289 4.29289C3.48043 4.10536 3.73478 4 4 4L20 4C20.2652 4 20.5196 4.10536 20.7071 4.29289C20.8946 4.48043 21 4.73478 21 5L21 13C21 13.2652 20.8946 13.5196 20.7071 13.7071C20.5196 13.8946 20.2652 14 20 14H16C15.7348 14 15.4804 14.1054 15.2929 14.2929C15.1054 14.4804 15 14.7348 15 15C15 15.2652 15.1054 15.5196 15.2929 15.7071C15.4804 15.8946 15.7348 16 16 16H20C20.7956 16 21.5587 15.6839 22.1213 15.1213C22.6839 14.5587 23 13.7957 23 13L23 5C23 4.20435 22.6839 3.44129 22.1213 2.87868C21.5587 2.31607 20.7956 2 20 2L4 2C3.20435 2 2.44129 2.31607 1.87868 2.87868C1.31607 3.44129 1 4.20435 1 5L1 13C1 13.7957 1.31607 14.5587 1.87868 15.1213C2.44129 15.6839 3.20435 16 4 16Z" fill="#0354B1"/>
</svg>
