<svg width="24" height="24" viewBox="0 0 24 24" fill="none" xmlns="http://www.w3.org/2000/svg">
<path fill-rule="evenodd" clip-rule="evenodd" d="M10.9027 1.73247C8.96512 1.93964 7.1257 2.69085 5.59704 3.8993C4.06838 5.10774 2.91287 6.72409 2.26406 8.56153C1.61525 10.399 1.49961 12.3825 1.93052 14.2829C2.36144 16.1833 3.3213 17.9229 4.69919 19.3008C6.07707 20.6787 7.81674 21.6386 9.71712 22.0695C11.6175 22.5004 13.601 22.3848 15.4385 21.7359C17.2759 21.0871 18.8923 19.9316 20.1007 18.403C21.3091 16.8743 22.0604 15.0349 22.2675 13.0973C21.5603 13.996 20.6705 14.7346 19.657 15.2644C18.6435 15.7941 17.5292 16.1031 16.3876 16.1709C15.246 16.2387 14.103 16.0638 13.0339 15.6576C11.9648 15.2515 10.9939 14.6234 10.1853 13.8147C9.3766 13.0061 8.7485 12.0352 8.34237 10.9661C7.93625 9.89703 7.76131 8.75401 7.8291 7.6124C7.89689 6.47078 8.20586 5.35649 8.73565 4.34298C9.26544 3.32947 10.004 2.43975 10.9027 1.73247ZM0 12C0 5.37265 5.37265 0 12 0C12.8004 0 13.2 0.637395 13.2692 1.1453C13.3351 1.63423 13.1542 2.256 12.5927 2.59535C11.7588 3.09863 11.0504 3.78511 10.5211 4.60276C9.99179 5.42042 9.65553 6.34782 9.53777 7.31469C9.42001 8.28157 9.52384 9.26256 9.8414 10.1834C10.159 11.1042 10.6819 11.9406 11.3706 12.6294C12.0594 13.3181 12.8958 13.841 13.8166 14.1586C14.7374 14.4762 15.7184 14.58 16.6853 14.4622C17.6522 14.3445 18.5796 14.0082 19.3972 13.4789C20.2149 12.9496 20.9014 12.2412 21.4047 11.4073C21.744 10.8458 22.3658 10.6649 22.8547 10.7308C23.3626 10.8 24 11.1996 24 12C24 18.6273 18.6273 24 12 24C5.37265 24 0 18.6273 0 12Z" fill="#19007C"/>
</svg>
