<svg width="24" height="22" viewBox="0 0 24 22" fill="none" xmlns="http://www.w3.org/2000/svg">
<path d="M18.711 21.3883L18.6978 21.3905L18.6126 21.429L18.5886 21.4334L18.5718 21.429L18.4866 21.3905C18.4738 21.3868 18.4642 21.3886 18.4578 21.396L18.453 21.407L18.4326 21.8779L18.4386 21.8999L18.4506 21.9142L18.5754 21.9956L18.5934 22L18.6078 21.9956L18.7326 21.9142L18.747 21.8966L18.7518 21.8779L18.7314 21.4081C18.7282 21.3963 18.7214 21.3897 18.711 21.3883ZM19.029 21.264L19.0134 21.2662L18.7914 21.3685L18.7794 21.3795L18.7758 21.3916L18.7974 21.8647L18.8034 21.8779L18.813 21.8856L19.0542 21.9879C19.0694 21.9916 19.081 21.9886 19.089 21.9791L19.0938 21.9637L19.053 21.2882C19.049 21.275 19.041 21.2669 19.029 21.264ZM18.171 21.2662C18.1657 21.2632 18.1594 21.2623 18.1533 21.2635C18.1473 21.2647 18.142 21.268 18.1386 21.2728L18.1314 21.2882L18.0906 21.9637C18.0914 21.9769 18.0982 21.9857 18.111 21.9901L18.129 21.9879L18.3702 21.8856L18.3822 21.8768L18.387 21.8647L18.4074 21.3916L18.4038 21.3784L18.3918 21.3674L18.171 21.2662Z" fill="#19007C"/>
<path d="M11.9993 18.7036C12.3176 18.7036 12.6229 18.8195 12.8479 19.0258C13.073 19.2322 13.1994 19.512 13.1994 19.8038V20.904C13.1994 21.1958 13.073 21.4756 12.8479 21.682C12.6229 21.8883 12.3176 22.0042 11.9993 22.0042C11.6811 22.0042 11.3758 21.8883 11.1508 21.682C10.9257 21.4756 10.7993 21.1958 10.7993 20.904V19.8038C10.7993 19.512 10.9257 19.2322 11.1508 19.0258C11.3758 18.8195 11.6811 18.7036 11.9993 18.7036ZM19.6366 16.4482L20.485 17.226C20.7036 17.4335 20.8246 17.7114 20.8218 17.9999C20.8191 18.2884 20.6929 18.5643 20.4704 18.7683C20.2479 18.9723 19.9469 19.088 19.6322 19.0905C19.3176 19.093 19.0144 18.9821 18.7881 18.7817L17.9397 18.0039C17.7211 17.7963 17.6001 17.5184 17.6028 17.23C17.6056 16.9415 17.7318 16.6655 17.9543 16.4616C18.1768 16.2576 18.4778 16.1419 18.7924 16.1394C19.1071 16.1368 19.4102 16.2477 19.6366 16.4482ZM4.36211 16.4482C4.57807 16.2508 4.86786 16.1363 5.17262 16.1277C5.47737 16.1192 5.77425 16.2173 6.00294 16.4022C6.23163 16.5871 6.37499 16.8448 6.4039 17.1231C6.43282 17.4014 6.34512 17.6793 6.15861 17.9004L6.05901 18.0039L5.21056 18.7817C4.9946 18.979 4.70481 19.0936 4.40005 19.1021C4.0953 19.1106 3.79842 19.0125 3.56973 18.8276C3.34104 18.6428 3.19768 18.385 3.16877 18.1067C3.13985 17.8285 3.22756 17.5506 3.41406 17.3294L3.51366 17.226L4.36211 16.4482ZM11.9993 4.40084C13.909 4.40084 15.7404 5.09633 17.0908 6.33431C18.4411 7.57229 19.1997 9.25134 19.1997 11.0021C19.1997 12.7529 18.4411 14.4319 17.0908 15.6699C15.7404 16.9079 13.909 17.6034 11.9993 17.6034C10.0897 17.6034 8.25822 16.9079 6.90788 15.6699C5.55755 14.4319 4.79894 12.7529 4.79894 11.0021C4.79894 9.25134 5.55755 7.57229 6.90788 6.33431C8.25822 5.09633 10.0897 4.40084 11.9993 4.40084ZM11.9993 6.60127C10.7262 6.60127 9.50526 7.06492 8.60503 7.89024C7.70481 8.71556 7.19907 9.83493 7.19907 11.0021C7.19907 12.1693 7.70481 13.2887 8.60503 14.114C9.50526 14.9393 10.7262 15.403 11.9993 15.403C13.2724 15.403 14.4934 14.9393 15.3936 14.114C16.2939 13.2887 16.7996 12.1693 16.7996 11.0021C16.7996 9.83493 16.2939 8.71556 15.3936 7.89024C14.4934 7.06492 13.2724 6.60127 11.9993 6.60127ZM2.3988 9.9019C2.70468 9.90221 2.99888 10.0096 3.22129 10.2021C3.44371 10.3946 3.57755 10.6577 3.59548 10.9376C3.6134 11.2176 3.51406 11.4932 3.31774 11.7083C3.12142 11.9233 2.84294 12.0615 2.53921 12.0946L2.3988 12.1023H1.19874C0.892864 12.102 0.598665 11.9946 0.376249 11.8021C0.153834 11.6096 0.0199897 11.3465 0.00206416 11.0666C-0.0158614 10.7866 0.0834847 10.511 0.279804 10.296C0.476123 10.0809 0.754597 9.94272 1.05833 9.9096L1.19874 9.9019H2.3988ZM22.7999 9.9019C23.1182 9.9019 23.4235 10.0178 23.6485 10.2241C23.8736 10.4305 24 10.7103 24 11.0021C24 11.2939 23.8736 11.5737 23.6485 11.7801C23.4235 11.9864 23.1182 12.1023 22.7999 12.1023H21.5999C21.2816 12.1023 20.9763 11.9864 20.7513 11.7801C20.5262 11.5737 20.3998 11.2939 20.3998 11.0021C20.3998 10.7103 20.5262 10.4305 20.7513 10.2241C20.9763 10.0178 21.2816 9.9019 21.5999 9.9019H22.7999ZM3.51366 3.22252C3.72031 3.03309 3.99524 2.91929 4.28689 2.90248C4.57854 2.88567 4.86686 2.96699 5.09775 3.1312L5.21056 3.22252L6.05901 4.00037C6.27424 4.19836 6.39919 4.46403 6.4085 4.74343C6.41781 5.02283 6.31076 5.295 6.10911 5.50466C5.90746 5.71432 5.62632 5.84576 5.3228 5.87226C5.01927 5.89877 4.71612 5.81837 4.47492 5.64738L4.36211 5.55607L3.51366 4.77822C3.28869 4.5719 3.1623 4.2921 3.1623 4.00037C3.1623 3.70863 3.28869 3.42884 3.51366 3.22252ZM20.485 3.22252C20.71 3.42884 20.8364 3.70863 20.8364 4.00037C20.8364 4.2921 20.71 4.5719 20.485 4.77822L19.6366 5.55607C19.5259 5.66115 19.3934 5.74496 19.247 5.80262C19.1006 5.86028 18.9431 5.89064 18.7838 5.8919C18.6244 5.89317 18.4664 5.86534 18.3189 5.81002C18.1715 5.7547 18.0375 5.673 17.9248 5.5697C17.8121 5.4664 17.723 5.34356 17.6627 5.20835C17.6023 5.07314 17.572 4.92826 17.5733 4.78218C17.5747 4.63609 17.6078 4.49172 17.6707 4.35749C17.7336 4.22326 17.825 4.10186 17.9397 4.00037L18.7881 3.22252C19.0132 3.01626 19.3183 2.90039 19.6366 2.90039C19.9548 2.90039 20.26 3.01626 20.485 3.22252ZM11.9993 0C12.3176 0 12.6229 0.115915 12.8479 0.322244C13.073 0.528574 13.1994 0.808417 13.1994 1.10021V2.20042C13.1994 2.49222 13.073 2.77206 12.8479 2.97839C12.6229 3.18472 12.3176 3.30063 11.9993 3.30063C11.6811 3.30063 11.3758 3.18472 11.1508 2.97839C10.9257 2.77206 10.7993 2.49222 10.7993 2.20042V1.10021C10.7993 0.808417 10.9257 0.528574 11.1508 0.322244C11.3758 0.115915 11.6811 0 11.9993 0Z" fill="#19007C"/>
</svg>
